<svg width="183" height="31" viewBox="0 0 183 31" fill="none" xmlns="http://www.w3.org/2000/svg">
<path d="M40.4746 23V8.68359H50.2891V11.1055H43.3652V14.4941H49.3418V16.916H43.3652V23H40.4746ZM55.0129 15.793L52.5227 15.3438C52.8026 14.3411 53.2844 13.599 53.968 13.1172C54.6516 12.6354 55.6672 12.3945 57.0148 12.3945C58.2388 12.3945 59.1503 12.541 59.7492 12.834C60.3482 13.1204 60.7681 13.4883 61.009 13.9375C61.2564 14.3802 61.3801 15.1973 61.3801 16.3887L61.3508 19.5918C61.3508 20.5033 61.3931 21.1771 61.4777 21.6133C61.5689 22.043 61.7349 22.5052 61.9758 23H59.2609C59.1893 22.8177 59.1014 22.5475 58.9973 22.1895C58.9517 22.0267 58.9191 21.9193 58.8996 21.8672C58.4309 22.3229 57.9296 22.6647 57.3957 22.8926C56.8618 23.1204 56.2922 23.2344 55.6867 23.2344C54.619 23.2344 53.7759 22.9447 53.1574 22.3652C52.5454 21.7858 52.2395 21.0534 52.2395 20.168C52.2395 19.582 52.3794 19.0612 52.6594 18.6055C52.9393 18.1432 53.3299 17.7917 53.8313 17.5508C54.3391 17.3034 55.0682 17.0885 56.0188 16.9062C57.3013 16.6654 58.19 16.4408 58.6848 16.2324V15.959C58.6848 15.4316 58.5546 15.0573 58.2941 14.8359C58.0337 14.6081 57.5422 14.4941 56.8195 14.4941C56.3313 14.4941 55.9504 14.5918 55.677 14.7871C55.4035 14.9759 55.1822 15.3112 55.0129 15.793ZM58.6848 18.0195C58.3332 18.1367 57.7766 18.2767 57.0148 18.4395C56.2531 18.6022 55.7551 18.7617 55.5207 18.918C55.1626 19.1719 54.9836 19.4941 54.9836 19.8848C54.9836 20.2689 55.1268 20.6009 55.4133 20.8809C55.6997 21.1608 56.0643 21.3008 56.507 21.3008C57.0018 21.3008 57.4738 21.138 57.923 20.8125C58.2551 20.5651 58.4732 20.2624 58.5773 19.9043C58.649 19.6699 58.6848 19.224 58.6848 18.5664V18.0195ZM67.0219 23H64.2777V12.6289H66.8266V14.1035C67.2628 13.4069 67.6534 12.9479 67.9984 12.7266C68.35 12.5052 68.7471 12.3945 69.1898 12.3945C69.8148 12.3945 70.4171 12.5671 70.9965 12.9121L70.1469 15.3047C69.6846 15.0052 69.2549 14.8555 68.8578 14.8555C68.4737 14.8555 68.1482 14.9629 67.8813 15.1777C67.6143 15.3861 67.4027 15.7669 67.2465 16.3203C67.0967 16.8737 67.0219 18.0326 67.0219 19.7969V23ZM72.2828 12.6289H74.8121V14.0449C75.7171 12.9447 76.7945 12.3945 78.0445 12.3945C78.7086 12.3945 79.2848 12.5312 79.773 12.8047C80.2613 13.0781 80.6617 13.4915 80.9742 14.0449C81.4299 13.4915 81.9215 13.0781 82.4488 12.8047C82.9762 12.5312 83.5393 12.3945 84.1383 12.3945C84.9 12.3945 85.5445 12.5508 86.0719 12.8633C86.5992 13.1693 86.9931 13.6217 87.2535 14.2207C87.4423 14.6634 87.5367 15.3796 87.5367 16.3691V23H84.7926V17.0723C84.7926 16.0436 84.6982 15.3796 84.5094 15.0801C84.2555 14.6895 83.8648 14.4941 83.3375 14.4941C82.9534 14.4941 82.5921 14.6113 82.2535 14.8457C81.915 15.0801 81.6708 15.4251 81.5211 15.8809C81.3714 16.3301 81.2965 17.043 81.2965 18.0195V23H78.5523V17.3164C78.5523 16.3073 78.5035 15.6562 78.4059 15.3633C78.3082 15.0703 78.1552 14.8522 77.9469 14.709C77.7451 14.5658 77.4684 14.4941 77.1168 14.4941C76.6936 14.4941 76.3128 14.6081 75.9742 14.8359C75.6357 15.0638 75.3915 15.3926 75.2418 15.8223C75.0986 16.252 75.027 16.9648 75.027 17.9609V23H72.2828V12.6289ZM92.6316 15.793L90.1414 15.3438C90.4214 14.3411 90.9031 13.599 91.5867 13.1172C92.2703 12.6354 93.2859 12.3945 94.6336 12.3945C95.8576 12.3945 96.769 12.541 97.368 12.834C97.9669 13.1204 98.3868 13.4883 98.6277 13.9375C98.8751 14.3802 98.9988 15.1973 98.9988 16.3887L98.9695 19.5918C98.9695 20.5033 99.0118 21.1771 99.0965 21.6133C99.1876 22.043 99.3536 22.5052 99.5945 23H96.8797C96.8081 22.8177 96.7202 22.5475 96.616 22.1895C96.5704 22.0267 96.5379 21.9193 96.5184 21.8672C96.0496 22.3229 95.5483 22.6647 95.0145 22.8926C94.4806 23.1204 93.9109 23.2344 93.3055 23.2344C92.2378 23.2344 91.3947 22.9447 90.7762 22.3652C90.1642 21.7858 89.8582 21.0534 89.8582 20.168C89.8582 19.582 89.9982 19.0612 90.2781 18.6055C90.5581 18.1432 90.9487 17.7917 91.45 17.5508C91.9578 17.3034 92.687 17.0885 93.6375 16.9062C94.9201 16.6654 95.8087 16.4408 96.3035 16.2324V15.959C96.3035 15.4316 96.1733 15.0573 95.9129 14.8359C95.6525 14.6081 95.1609 14.4941 94.4383 14.4941C93.95 14.4941 93.5691 14.5918 93.2957 14.7871C93.0223 14.9759 92.8009 15.3112 92.6316 15.793ZM96.3035 18.0195C95.952 18.1367 95.3953 18.2767 94.6336 18.4395C93.8719 18.6022 93.3738 18.7617 93.1395 18.918C92.7814 19.1719 92.6023 19.4941 92.6023 19.8848C92.6023 20.2689 92.7456 20.6009 93.032 20.8809C93.3185 21.1608 93.6831 21.3008 94.1258 21.3008C94.6206 21.3008 95.0926 21.138 95.5418 20.8125C95.8738 20.5651 96.0919 20.2624 96.1961 19.9043C96.2677 19.6699 96.3035 19.224 96.3035 18.5664V18.0195ZM102.053 23V8.68359H111.867V11.1055H104.943V14.4941H110.92V16.916H104.943V23H102.053ZM113.905 17.668C113.905 16.7565 114.13 15.8743 114.579 15.0215C115.029 14.1686 115.663 13.5176 116.484 13.0684C117.31 12.6191 118.232 12.3945 119.247 12.3945C120.816 12.3945 122.102 12.9056 123.105 13.9277C124.107 14.9434 124.609 16.2292 124.609 17.7852C124.609 19.3542 124.101 20.6562 123.085 21.6914C122.076 22.7201 120.803 23.2344 119.267 23.2344C118.316 23.2344 117.408 23.0195 116.542 22.5898C115.683 22.1602 115.029 21.5319 114.579 20.7051C114.13 19.8717 113.905 18.8594 113.905 17.668ZM116.718 17.8145C116.718 18.8431 116.962 19.6309 117.45 20.1777C117.939 20.7246 118.541 20.998 119.257 20.998C119.973 20.998 120.572 20.7246 121.054 20.1777C121.542 19.6309 121.786 18.8366 121.786 17.7949C121.786 16.7793 121.542 15.998 121.054 15.4512C120.572 14.9043 119.973 14.6309 119.257 14.6309C118.541 14.6309 117.939 14.9043 117.45 15.4512C116.962 15.998 116.718 16.7858 116.718 17.8145ZM117.87 11.3594L119.218 8.43945H122.294L119.609 11.3594H117.87ZM129.694 23H126.95V12.6289H129.498V14.1035C129.935 13.4069 130.325 12.9479 130.67 12.7266C131.022 12.5052 131.419 12.3945 131.862 12.3945C132.487 12.3945 133.089 12.5671 133.668 12.9121L132.819 15.3047C132.357 15.0052 131.927 14.8555 131.53 14.8555C131.146 14.8555 130.82 14.9629 130.553 15.1777C130.286 15.3861 130.075 15.7669 129.918 16.3203C129.769 16.8737 129.694 18.0326 129.694 19.7969V23ZM141.986 23V21.4473C141.608 22.0007 141.11 22.4368 140.492 22.7559C139.88 23.0749 139.232 23.2344 138.548 23.2344C137.852 23.2344 137.227 23.0814 136.673 22.7754C136.12 22.4694 135.72 22.0397 135.472 21.4863C135.225 20.9329 135.101 20.168 135.101 19.1914V12.6289H137.845V17.3945C137.845 18.8529 137.894 19.748 137.992 20.0801C138.096 20.4056 138.282 20.666 138.548 20.8613C138.815 21.0501 139.154 21.1445 139.564 21.1445C140.033 21.1445 140.453 21.0176 140.824 20.7637C141.195 20.5033 141.449 20.1842 141.586 19.8066C141.722 19.4225 141.791 18.4883 141.791 17.0039V12.6289H144.535V23H141.986ZM147.481 12.6289H150.011V14.0449C150.915 12.9447 151.993 12.3945 153.243 12.3945C153.907 12.3945 154.483 12.5312 154.971 12.8047C155.46 13.0781 155.86 13.4915 156.173 14.0449C156.628 13.4915 157.12 13.0781 157.647 12.8047C158.175 12.5312 158.738 12.3945 159.337 12.3945C160.098 12.3945 160.743 12.5508 161.27 12.8633C161.798 13.1693 162.192 13.6217 162.452 14.2207C162.641 14.6634 162.735 15.3796 162.735 16.3691V23H159.991V17.0723C159.991 16.0436 159.897 15.3796 159.708 15.0801C159.454 14.6895 159.063 14.4941 158.536 14.4941C158.152 14.4941 157.79 14.6113 157.452 14.8457C157.113 15.0801 156.869 15.4251 156.72 15.8809C156.57 16.3301 156.495 17.043 156.495 18.0195V23H153.751V17.3164C153.751 16.3073 153.702 15.6562 153.604 15.3633C153.507 15.0703 153.354 14.8522 153.145 14.709C152.943 14.5658 152.667 14.4941 152.315 14.4941C151.892 14.4941 151.511 14.6081 151.173 14.8359C150.834 15.0638 150.59 15.3926 150.44 15.8223C150.297 16.252 150.225 16.9648 150.225 17.9609V23H147.481V12.6289Z" fill="#F0ECD5"/>
<path d="M16.6729 11.9431C13.3274 15.1178 13.3274 20.2579 16.6484 23.4326C18.4498 19.4787 21.6604 16.1761 25.6677 14.2108C22.2732 16.932 19.8958 20.7347 19.0625 25.049C22.2487 26.4794 26.1701 25.9561 28.8048 23.4559C33.0693 19.409 33.7678 7.23334 33.7678 7.23334C33.7678 7.23334 20.9374 7.89619 16.6729 11.9431Z" fill="#F0ECD5"/>
</svg>
